<?xml version="1.0" standalone="no"?>
<!DOCTYPE svg PUBLIC "-//W3C//DTD SVG 20010904//EN"
 "http://www.w3.org/TR/2001/REC-SVG-20010904/DTD/svg10.dtd">
<svg version="1.0" xmlns="http://www.w3.org/2000/svg"
 width="453.000000pt" height="453.000000pt" viewBox="0 0 453.000000 453.000000"
 preserveAspectRatio="xMidYMid meet">
<metadata>
Created by potrace 1.14, written by Peter Selinger 2001-2017
</metadata>
<g transform="translate(0.000000,453.000000) scale(0.100000,-0.100000)"
fill="#000000" stroke="none">
<path d="M2020 4421 c-51 -11 -70 -23 -123 -80 -50 -53 -56 -75 -33 -119 8
-15 17 -50 21 -77 15 -121 28 -190 41 -220 7 -18 16 -62 20 -99 6 -60 5 -69
-16 -91 -12 -13 -35 -29 -50 -35 -29 -12 -50 -52 -50 -96 0 -13 -4 -25 -9 -28
-10 -7 -21 16 -21 44 0 32 -63 86 -114 99 -38 9 -60 25 -109 76 -33 36 -69 65
-80 65 -10 0 -59 14 -109 30 -118 40 -252 61 -305 50 -32 -8 -47 -6 -79 10
-21 11 -45 20 -54 20 -27 0 -170 -140 -198 -195 -28 -55 -34 -130 -14 -179
l12 -28 85 3 c82 4 85 5 123 42 33 32 43 37 68 31 39 -9 115 -40 189 -76 36
-17 68 -26 78 -22 13 4 32 -9 71 -50 30 -31 61 -56 69 -56 12 0 47 -33 117
-109 8 -9 28 -25 44 -37 28 -20 28 -21 12 -52 -9 -17 -25 -33 -36 -37 -30 -10
-91 24 -105 59 -18 43 -42 62 -95 76 -25 7 -78 27 -118 45 -89 41 -215 77
-239 68 -10 -4 -38 -24 -63 -46 -25 -21 -75 -54 -111 -73 -96 -48 -148 -117
-167 -221 -15 -82 -1 -141 42 -180 22 -21 46 -33 63 -33 39 0 92 35 103 68 19
50 32 70 62 92 l30 22 31 -30 c53 -49 92 -64 182 -66 44 -1 87 -6 94 -10 7 -4
28 -8 47 -8 19 0 36 -3 39 -8 2 -4 -18 -45 -45 -90 -28 -46 -50 -89 -50 -95 0
-35 -66 -49 -265 -60 -137 -7 -155 -9 -285 -36 -135 -28 -156 -47 -148 -129 2
-27 12 -39 50 -64 36 -24 50 -41 62 -76 19 -54 68 -291 62 -297 -5 -5 -13 7
-86 146 -65 123 -86 140 -76 61 4 -29 16 -71 28 -94 27 -53 113 -170 138 -187
14 -10 26 -42 42 -119 21 -102 23 -106 71 -153 59 -56 103 -64 135 -22 11 14
39 32 63 40 24 9 51 23 61 32 25 23 33 10 33 -52 0 -61 15 -86 40 -65 8 7 15
24 15 38 0 34 11 20 39 -51 23 -57 23 -59 6 -98 -10 -21 -22 -39 -27 -39 -5 0
-4 9 2 20 14 26 4 43 -18 31 -10 -5 -25 -35 -36 -68 -24 -77 -30 -87 -52 -92
-10 -2 -32 -14 -49 -26 -16 -12 -40 -26 -51 -29 -19 -6 -21 -3 -16 19 8 46
-49 101 -64 61 -3 -8 -11 -41 -19 -73 -7 -32 -23 -82 -36 -111 -22 -51 -23
-55 -7 -82 15 -27 15 -29 -7 -50 -12 -11 -30 -39 -40 -61 -15 -32 -23 -39 -47
-39 -34 0 -35 -10 -3 -40 13 -13 49 -74 80 -136 69 -140 91 -167 162 -194 83
-31 98 -21 33 22 -30 19 -64 45 -74 57 -17 18 -11 17 40 -8 32 -17 78 -32 102
-35 24 -2 50 -10 59 -18 14 -11 13 -13 -6 -18 -58 -13 13 -46 79 -36 19 2 62
10 95 15 115 20 114 20 149 -27 34 -48 137 -129 174 -139 31 -7 40 3 51 61 5
27 18 58 30 69 18 18 24 19 57 9 21 -6 41 -9 46 -6 4 3 32 0 62 -6 41 -8 56
-16 64 -35 14 -31 26 -31 46 -3 19 26 19 26 41 -40 9 -29 28 -65 41 -80 l24
-27 30 33 c20 22 30 43 30 65 1 48 35 115 65 127 17 6 41 6 68 1 23 -6 89 -12
147 -16 115 -7 140 -20 140 -74 0 -14 5 -42 10 -62 6 -20 17 -87 24 -149 8
-61 18 -116 24 -122 6 -6 29 -7 57 -2 l48 7 -7 96 c-4 53 -15 141 -25 196 -10
55 -17 103 -14 107 2 4 20 10 41 14 20 4 48 12 62 19 14 7 60 28 102 45 88 37
102 34 111 -26 11 -67 46 -80 123 -45 36 16 42 24 46 59 3 22 3 70 1 106 -5
56 -3 70 13 87 53 59 168 114 214 102 18 -5 21 -11 16 -35 -4 -18 5 -62 24
-121 16 -51 31 -103 34 -117 7 -41 17 -60 37 -70 24 -13 101 -2 115 16 9 11
13 -3 19 -63 4 -43 16 -111 26 -152 10 -41 19 -86 19 -99 0 -38 44 -273 61
-329 10 -31 14 -33 55 -33 l45 0 -6 33 c-3 17 -21 158 -41 312 -19 154 -46
363 -60 465 -13 102 -24 217 -24 257 l0 72 33 5 c17 3 46 7 62 8 26 3 31 8 35
37 4 29 11 36 55 53 85 33 108 65 125 173 10 65 10 69 -15 105 -20 29 -31 37
-47 32 -13 -3 -24 1 -30 12 -5 9 -15 16 -23 16 -7 0 -30 22 -50 50 -37 50
-117 98 -193 115 -62 13 -51 55 20 77 l40 12 -3 95 c-3 107 4 115 53 59 17
-19 29 -48 33 -79 4 -27 15 -60 26 -73 10 -13 19 -29 19 -34 0 -6 13 -20 30
-32 16 -12 33 -32 36 -45 3 -13 14 -31 24 -40 16 -15 22 -15 47 -3 15 7 34 26
41 41 19 39 28 173 13 190 -9 11 -8 17 4 27 8 7 15 18 15 26 0 7 8 17 18 23
16 9 16 11 0 39 -13 22 -18 52 -18 109 0 85 -22 250 -47 353 -9 36 -20 97 -24
135 -4 39 -18 101 -31 139 -23 67 -25 69 -74 87 -37 14 -56 30 -79 63 -46 68
-109 71 -122 5 -7 -37 -21 -37 -68 1 -40 31 -68 32 -110 4 -29 -20 -34 -18
-51 22 -8 20 -28 43 -45 52 -17 9 -41 24 -52 33 -22 16 -107 166 -107 187 0 6
13 20 30 32 22 15 34 18 47 11 10 -6 56 -26 103 -46 126 -53 144 -63 193 -109
59 -53 102 -86 116 -86 6 0 11 -5 11 -11 0 -5 26 -21 58 -35 31 -14 83 -37
114 -51 69 -32 94 -25 132 35 22 35 23 43 14 92 -18 101 -89 217 -219 356 -54
58 -102 102 -118 106 -15 4 -61 37 -101 73 -88 77 -127 97 -198 103 -65 6
-143 -15 -149 -39 -4 -14 -12 -17 -37 -12 -17 3 -32 10 -34 15 -10 24 -69 -3
-136 -61 -26 -22 -63 -45 -84 -51 -39 -10 -182 -14 -182 -4 0 30 25 155 35
174 25 49 118 126 179 149 33 12 72 33 88 46 16 14 33 25 36 25 4 0 20 18 36
40 22 29 37 40 57 40 17 0 47 16 82 45 52 44 55 49 62 103 14 126 -47 186
-186 184 -70 -1 -84 -5 -153 -41 -41 -22 -103 -50 -138 -62 -94 -31 -111 -43
-151 -103 -20 -31 -60 -73 -88 -93 -92 -68 -118 -97 -125 -142 -5 -31 -14 -45
-38 -60 -38 -24 -59 -58 -81 -133 -9 -31 -24 -67 -34 -80 -10 -13 -26 -38 -35
-56 -14 -27 -22 -33 -44 -30 -32 4 -46 38 -57 138 -4 36 -13 72 -21 81 -12 13
-12 29 -4 92 10 69 9 79 -10 117 -12 23 -34 80 -50 128 -25 76 -26 89 -14 98
8 7 20 28 25 48 12 45 -5 87 -60 140 -42 41 -90 52 -161 37z m-72 -918 c-4
-21 -36 -29 -51 -14 -9 9 -8 14 3 21 25 16 52 12 48 -7z m229 -134 c7 -7 28
-7 73 1 66 12 111 7 148 -18 21 -14 26 -14 54 2 42 25 88 16 224 -44 62 -28
116 -50 120 -50 4 0 47 -24 94 -53 47 -30 122 -76 167 -102 147 -86 203 -142
203 -203 0 -33 -3 -34 -120 -46 -25 -3 -94 -10 -153 -17 -104 -12 -110 -12
-150 8 -23 12 -50 24 -60 27 -10 3 -26 24 -34 45 -19 48 -29 53 -70 36 -44
-19 -63 -52 -74 -132 -12 -89 -37 -173 -52 -179 -7 -2 -53 -6 -102 -8 -50 -2
-118 -8 -153 -12 l-63 -7 3 44 c3 42 5 45 46 59 39 13 43 17 37 40 -3 14 -9
54 -12 89 -6 66 -23 68 -23 2 0 -29 -2 -32 -15 -21 -8 7 -15 18 -15 25 0 18
-55 63 -107 88 l-42 21 -81 -32 c-86 -34 -224 -72 -260 -72 -17 0 -20 4 -15
18 16 36 26 115 17 124 -6 6 -28 -12 -58 -48 -50 -58 -138 -134 -156 -134 -18
0 77 162 137 233 175 206 227 247 385 303 73 26 91 29 107 13z m1584 -674 c27
-14 29 -19 23 -49 -4 -24 -2 -36 9 -42 8 -5 18 -20 22 -34 7 -21 6 -23 -7 -13
-11 10 -17 10 -26 1 -22 -22 -13 -49 17 -61 27 -10 30 -16 36 -72 4 -33 5 -74
3 -90 -3 -28 -6 -30 -54 -33 -33 -2 -54 2 -61 10 -20 27 -65 246 -61 303 2 29
-3 41 -22 55 -26 20 -24 22 25 33 40 9 67 7 96 -8z m-1754 -62 c9 -24 13 -52
10 -78 -5 -32 -1 -47 18 -75 17 -24 25 -51 26 -84 2 -49 -8 -66 -43 -66 -9 0
-20 -9 -23 -20 -11 -33 -43 -47 -189 -79 -77 -18 -153 -38 -168 -45 -15 -8
-42 -17 -60 -21 -62 -13 -168 -47 -174 -56 -9 -15 -33 -10 -43 9 -6 12 0 69
19 181 22 132 31 167 48 180 11 9 23 26 27 39 3 12 13 22 21 22 8 0 22 4 32 9
20 11 78 26 147 40 133 26 293 66 302 75 16 15 35 3 50 -31z m1385 2 c4 -16
16 -55 26 -85 11 -30 25 -111 32 -178 6 -68 14 -130 17 -138 8 -23 -43 -29
-239 -29 -136 0 -190 3 -200 13 -7 7 -38 12 -73 12 -33 0 -66 4 -73 9 -17 10
-32 74 -42 181 -5 47 -14 108 -21 137 -12 47 -11 54 5 72 10 11 28 21 40 21
11 0 53 4 91 9 39 4 151 7 250 7 l179 -1 8 -30z m-2199 -202 c-3 -27 -9 -72
-14 -102 -5 -30 -9 -103 -9 -163 l0 -109 -62 -39 c-35 -22 -70 -40 -79 -40
-34 0 -52 37 -59 123 -6 61 -19 112 -49 188 -46 119 -47 122 -25 140 18 15
187 47 255 48 l47 1 -5 -47z m1404 -98 c25 -6 37 -55 48 -189 8 -99 21 -131
74 -178 22 -20 41 -41 41 -46 0 -19 -139 -23 -295 -7 -44 4 -68 1 -89 -10 -15
-8 -31 -13 -35 -10 -4 2 -36 -5 -70 -16 -35 -10 -86 -23 -114 -29 -131 -24
-226 -52 -318 -93 -19 -8 -48 -19 -65 -23 -16 -4 -47 -17 -69 -29 -22 -13 -73
-32 -112 -43 l-73 -20 -25 30 c-14 17 -33 44 -41 62 -9 17 -35 50 -58 74 l-41
43 24 20 c20 17 110 47 236 81 22 6 67 23 100 39 33 16 89 36 125 44 36 9 90
23 121 31 71 20 90 16 102 -21 12 -38 34 -63 70 -82 39 -19 54 -11 66 35 11
41 67 132 81 132 5 0 22 12 39 26 17 14 35 22 41 19 16 -10 57 3 64 20 9 25
-4 45 -45 66 -36 18 -38 21 -26 40 6 12 24 26 38 33 24 10 159 11 206 1z m797
-423 c-16 -26 -53 -27 -71 -3 -25 37 -83 22 -83 -22 0 -18 -5 -19 -62 -12 -35
4 -100 10 -146 15 -88 8 -97 11 -89 33 7 17 198 35 297 27 14 -1 48 2 75 7 43
8 53 7 70 -9 15 -14 17 -22 9 -36z m66 36 c0 -34 -11 -68 -21 -68 -5 0 -9 20
-9 45 0 33 4 45 15 45 9 0 15 -9 15 -22z m-818 -290 c-7 -7 -12 -8 -12 -2 0
14 12 26 19 19 2 -3 -1 -11 -7 -17z m168 12 c0 -5 -4 -10 -10 -10 -5 0 -10 5
-10 10 0 6 5 10 10 10 6 0 10 -4 10 -10z m315 -1 c12 -18 -1 -20 -36 -5 l-34
15 32 1 c17 0 35 -5 38 -11z m180 -119 c-3 -5 -10 -10 -16 -10 -5 0 -9 5 -9
10 0 6 7 10 16 10 8 0 12 -4 9 -10z m-205 -22 c0 -18 -2 -20 -9 -8 -6 8 -7 18
-5 22 9 14 14 9 14 -14z m85 12 c-3 -5 -13 -10 -21 -10 -8 0 -14 5 -14 10 0 6
9 10 21 10 11 0 17 -4 14 -10z m-385 -60 c0 -37 -16 -47 -40 -25 -19 17 -20
17 -28 -5 -6 -15 -11 -19 -16 -12 -10 17 -32 15 -51 -4 -15 -15 -17 -15 -29 2
-9 11 -27 18 -47 19 -18 0 -34 5 -36 11 -6 19 55 34 138 34 43 0 81 5 84 10
11 17 25 0 25 -30z m67 14 c-3 -3 -12 -4 -19 -1 -8 3 -5 6 6 6 11 1 17 -2 13
-5z m-443 -30 c12 -30 6 -44 -26 -65 -22 -13 -43 -18 -62 -14 -19 3 -35 0 -47
-11 -13 -12 -30 -15 -58 -11 -28 3 -44 1 -52 -10 -11 -12 -14 -12 -21 1 -12
21 -25 20 -55 -4 -29 -22 -73 -26 -91 -8 -21 21 -14 48 16 59 57 23 77 36 76
52 -2 20 43 23 90 6 24 -9 47 -8 101 4 94 20 122 20 129 1z m835 -85 c25 1 54
4 65 7 18 6 18 5 0 -27 -44 -81 -88 -109 -173 -114 -62 -4 -71 2 -71 52 0 37
20 61 58 69 15 3 34 9 42 13 8 5 19 6 24 3 6 -3 30 -5 55 -3z m-399 -9 c0 -5
-4 -10 -10 -10 -5 0 -10 5 -10 10 0 6 5 10 10 10 6 0 10 -4 10 -10z m-1062
-47 c5 -16 13 -36 17 -45 10 -25 -21 -24 -62 2 -40 24 -41 35 -5 54 37 20 39
20 50 -11z m1132 -30 c0 -27 -18 -37 -95 -51 -72 -13 -231 -19 -242 -8 -25 25
52 57 202 86 33 6 71 15 85 19 29 9 50 -10 50 -46z m-478 -50 c8 -10 18 -26
21 -35 5 -15 0 -17 -36 -17 -23 1 -55 -4 -71 -10 -24 -10 -32 -9 -48 5 -17 16
-19 16 -31 0 -12 -16 -168 -56 -222 -56 -17 0 -17 2 -5 14 19 18 134 66 158
66 24 0 172 37 180 44 11 12 39 6 54 -11z m-1150 -5 c20 -17 48 -59 48 -74 0
-19 -259 -110 -286 -100 -10 4 -14 16 -12 33 2 22 12 30 59 49 31 11 80 40
108 63 59 46 61 46 83 29z m1494 -226 c-6 -6 -141 -40 -144 -37 -11 10 13 26
48 31 21 4 41 12 44 20 4 10 10 10 30 1 13 -7 23 -13 22 -15z m-1156 3 c0 -8
-7 -15 -15 -15 -16 0 -20 12 -8 23 11 12 23 8 23 -8z m-225 -45 c-11 -5 -31
-9 -45 -9 -23 0 -23 1 -5 9 11 5 31 9 45 9 23 0 23 -1 5 -9z m-476 -87 c2 -2
-3 -3 -11 -3 -9 0 -19 7 -22 16 -6 15 -4 15 11 3 10 -7 20 -15 22 -16z m1871
-63 c0 -5 -10 -10 -22 -10 -19 0 -20 2 -8 10 19 13 30 13 30 0z"/>
<path d="M2297 2685 c-4 -8 -2 -17 3 -20 6 -4 10 3 10 14 0 25 -6 27 -13 6z"/>
</g>
</svg>
